<mxfile host="app.diagrams.net" modified="2023-03-27T01:34:25.449Z" agent="Mozilla/5.0 (Windows NT 10.0; Win64; x64) AppleWebKit/537.36 (KHTML, like Gecko) Chrome/109.0.0.0 Safari/537.36" version="21.1.1" etag="wELjeIPy0Vn9uhVr0LHu" type="google">
  <diagram name="Page-1" id="oIXfZ0g5370Ye3TcBx3w">
    <mxGraphModel>
      <root>
        <mxCell id="0" />
        <mxCell id="1" parent="0" />
      </root>
    </mxGraphModel>
  </diagram>
</mxfile>
